# xmcd
#
# Track frame offsets: 
#        150
#        11123
#        28427
#        41579
#        56714
#        66459
#        77975
#        87743
#        99627
#        111934
#        121799
#        133606
#        144267
#        156528
#        165068
#        176604
#        187707
#        198848
#        210183
#        221324
#        231805
#        242104
#        257521
#        267791
#        280412
#        296538
#
# Disc length: 4099 seconds
#
# Revision: 0
# Processed by: cddbd v1.5.2PL0 Copyright (c) Steve Scherf et al.
# Submitted via: ExactAudioCopy v0.90b4
#
DISCID=7710011a
DTITLE=Ernie K-Doe - Here Come The Girls: A History 1960-1970 [CD1]
DYEAR=2011
DGENRE=R&B
TTITLE0=Make You Love Me
TTITLE1=There's A Will, There's A Way
TTITLE2=Hello, My Lover
TTITLE3=T'ain't It The Truth
TTITLE4=Wanted - $10,000 Reward
TTITLE5=Mother-In-Law
TTITLE6=Real Man
TTITLE7=Te-Ta-Te-Ta-Ta
TTITLE8=A Certain Girl
TTITLE9=I Cried My Last Tear
TTITLE10=Popeye Joe
TTITLE11=Come On Home
TTITLE12=Hey, Hey, Hey
TTITLE13=Love You The Best
TTITLE14=I Got To Find Somebody
TTITLE15=Beating Like A Tom Tom
TTITLE16=Get Out Of My House
TTITLE17=Loving You
TTITLE18=Be Sweet
TTITLE19=Easier Said Than Done
TTITLE20=I'm The Boss
TTITLE21=Penny Worth Of Happiness
TTITLE22=Baby, Since I Met You
TTITLE23=Sufferin' So
TTITLE24=Reaping What I Sow
TTITLE25=Talking Out Of My Head
EXTD=
EXTT0=
EXTT1=
EXTT2=
EXTT3=
EXTT4=
EXTT5=
EXTT6=
EXTT7=
EXTT8=
EXTT9=
EXTT10=
EXTT11=
EXTT12=
EXTT13=
EXTT14=
EXTT15=
EXTT16=
EXTT17=
EXTT18=
EXTT19=
EXTT20=
EXTT21=
EXTT22=
EXTT23=
EXTT24=
EXTT25=
PLAYORDER=
